<svg width="7" height="6" viewBox="0 0 7 6" fill="none" xmlns="http://www.w3.org/2000/svg">
<path d="M1.70508 5.98409L6.47225 1.21692L5.35057 0.0952416L0.583405 4.86241L1.70508 5.98409Z" fill="white"/>
<path d="M1.12049 2.27515C1.55853 2.27515 1.91364 1.92004 1.91364 1.482C1.91364 1.04395 1.55853 0.688843 1.12049 0.688843C0.682439 0.688843 0.327332 1.04395 0.327332 1.482C0.327332 1.92004 0.682439 2.27515 1.12049 2.27515Z" fill="white"/>
<path d="M5.87948 5.44783C6.31752 5.44783 6.67263 5.09273 6.67263 4.65468C6.67263 4.21663 6.31752 3.86153 5.87948 3.86153C5.44143 3.86153 5.08633 4.21663 5.08633 4.65468C5.08633 5.09273 5.44143 5.44783 5.87948 5.44783Z" fill="white"/>
</svg>
